<svg width="15" height="21" viewBox="0 0 15 21" fill="none" xmlns="http://www.w3.org/2000/svg">
    <path d="M5.93277 16.4087L10.994 10.3222H7.05377L7.75502 4.82071L3.23152 11.3462H6.66477L5.93277 16.4087ZM4.11377 13.5615H1.15727C0.701432 13.5615 0.364682 13.3584 0.147015 12.9522C-0.0704847 12.546 -0.0466514 12.1524 0.218515 11.7712L7.99252 0.584711C8.17118 0.335377 8.40277 0.16296 8.68727 0.0674605C8.97193 -0.0282062 9.26193 -0.0221233 9.55727 0.08571C9.85243 0.19371 10.0737 0.37971 10.221 0.64371C10.3683 0.90771 10.4233 1.19129 10.386 1.49446L9.56802 8.10696H13.3115C13.8007 8.10696 14.1457 8.32454 14.3465 8.75971C14.5475 9.19488 14.4883 9.60104 14.169 9.97821L5.63927 20.2167C5.44393 20.4494 5.20493 20.599 4.92227 20.6657C4.63977 20.7324 4.36351 20.7054 4.09351 20.5847C3.82368 20.464 3.61493 20.275 3.46727 20.0175C3.3196 19.7598 3.26443 19.4813 3.30177 19.182L4.11377 13.5615Z" fill="#131C24"/>
</svg>
