<svg width="24" height="24" viewBox="0 0 24 24" fill="none" xmlns="http://www.w3.org/2000/svg">
    <path d="M14.7748 10.6477C15.0511 10.4573 15.3373 10.4466 15.6342 10.6165C15.9311 10.7863 16.0794 11.0438 16.0795 11.3889V12.1995C16.0795 12.5547 16.2028 12.8528 16.4486 13.093C16.6942 13.3333 16.9946 13.4534 17.35 13.4534C17.5307 13.4534 17.7021 13.4143 17.8636 13.3352C18.0254 13.256 18.1692 13.1422 18.2943 12.9944C18.3934 12.8711 18.5204 12.7939 18.6752 12.7629C18.8301 12.7321 18.9741 12.7648 19.1068 12.8616C19.8228 13.3775 20.3866 14.0308 20.7972 14.8206C21.2077 15.6101 21.4134 16.4476 21.4135 17.3333C21.4135 18.8443 20.8889 20.1243 19.8402 21.1731C18.7915 22.2218 17.5113 22.7463 16.0004 22.7463C14.4893 22.7463 13.2093 22.2218 12.1605 21.1731C11.1117 20.1243 10.5873 18.8444 10.5873 17.3333C10.5873 16.0804 10.9591 14.8724 11.7035 13.7102C12.4479 12.5481 13.4722 11.5275 14.7748 10.6477ZM15.1068 19.1643C14.9919 19.2791 14.903 19.4098 14.8402 19.5559C14.7776 19.702 14.7465 19.8535 14.7465 20.01C14.7465 20.3439 14.8691 20.6308 15.1146 20.8704C15.3602 21.1098 15.6556 21.2297 16.0004 21.2297C16.3454 21.2297 16.641 21.1093 16.8861 20.8694C17.1311 20.6296 17.2533 20.3426 17.2533 20.009C17.2532 19.8446 17.222 19.6914 17.1595 19.55C17.0971 19.4087 17.0085 19.2805 16.8939 19.1653L16.0004 18.2874L15.1068 19.1643ZM14.6234 12.6917C13.8074 13.401 13.1832 14.1524 12.7513 14.9456C12.3196 15.7388 12.1039 16.5347 12.1039 17.3333C12.1039 17.8553 12.203 18.3508 12.4017 18.8196C12.6005 19.2884 12.8872 19.7056 13.2621 20.0706C13.2537 20.0283 13.2494 19.99 13.2494 19.9563V19.842C13.2653 19.5052 13.3413 19.1896 13.476 18.8958C13.6106 18.6019 13.8003 18.332 14.0453 18.0872L16.0004 16.1624L17.9594 18.0872C18.2044 18.332 18.394 18.6019 18.5287 18.8958C18.6633 19.1896 18.7371 19.5052 18.7504 19.842V19.9563C18.7504 19.99 18.7461 20.0283 18.7377 20.0706C19.1098 19.7056 19.396 19.2884 19.5961 18.8196C19.7962 18.3508 19.8969 17.8553 19.8969 17.3333C19.8968 16.8069 19.801 16.3067 19.6097 15.8333C19.4185 15.3599 19.1414 14.9371 18.7797 14.5647C18.5576 14.6984 18.326 14.8001 18.0844 14.8684C17.8426 14.9366 17.5975 14.97 17.35 14.97C16.6719 14.97 16.077 14.7528 15.5648 14.3186C15.0527 13.8843 14.7385 13.3422 14.6234 12.6917ZM8.92908 1.15552C9.11882 1.09175 9.31231 1.09637 9.50916 1.16821C9.70574 1.24014 9.85332 1.36358 9.95154 1.53931C10.0497 1.71525 10.0867 1.90465 10.0619 2.10669L9.51697 6.51489H12.0121C12.3382 6.51489 12.5686 6.66033 12.7025 6.95044C12.8364 7.24048 12.7972 7.51155 12.5844 7.76294L6.89783 14.5881C6.7676 14.7432 6.60776 14.8435 6.41931 14.8879C6.23105 14.9323 6.04652 14.9137 5.86658 14.8333C5.68693 14.7528 5.54794 14.6268 5.44958 14.4553C5.35122 14.2836 5.31438 14.0981 5.33923 13.8987L5.88025 10.1516H3.90955C3.60566 10.1516 3.38083 10.0161 3.23572 9.74536C3.09082 9.47469 3.10692 9.21227 3.28357 8.95825L8.46619 1.50024C8.58522 1.33415 8.73958 1.2192 8.92908 1.15552ZM5.29236 8.67505H7.58142L7.09314 12.05L10.4672 7.99243H7.84021L8.30798 4.32446L5.29236 8.67505Z" fill="#131C24"/>
</svg>
