<svg width="24" height="24" viewBox="0 0 24 24" fill="none" xmlns="http://www.w3.org/2000/svg">
    <path d="M4.1795 9.08507V19.0536C4.1795 19.3624 4.07508 19.6212 3.86625 19.8301C3.65725 20.0389 3.39842 20.1433 3.08975 20.1433C2.78108 20.1433 2.52225 20.0389 2.31325 19.8301C2.10442 19.6212 2 19.3624 2 19.0536V9.12107C2 8.81757 2.057 8.52824 2.171 8.25307C2.285 7.97807 2.44758 7.73499 2.65875 7.52382L6.16375 4.01882C6.25892 3.92349 6.37717 3.84566 6.5185 3.78532C6.65983 3.72499 6.80325 3.69482 6.94875 3.69482C7.43992 3.69482 7.77642 3.91799 7.95825 4.36432C8.14008 4.81049 8.05875 5.20582 7.71425 5.55032L4.1795 9.08507Z" fill="#131C24"/>
    <path d="M11.5072 12.8258C11.7187 13.0375 11.9782 13.1433 12.2855 13.1433C12.5942 13.1433 12.8529 13.0375 13.0617 12.8258C13.2706 12.6143 13.375 12.3549 13.375 12.0476C13.375 11.7389 13.2702 11.4802 13.0607 11.2713C12.8511 11.0625 12.5927 10.9581 12.2855 10.9581C11.9782 10.9581 11.7187 11.0628 11.5072 11.2723C11.2956 11.482 11.1897 11.7404 11.1897 12.0476C11.1897 12.3549 11.2956 12.6143 11.5072 12.8258Z" fill="#131C24"/>
    <path fill-rule="evenodd" clip-rule="evenodd" d="M6.18975 10.8488V17.8683C6.18975 18.498 6.4115 19.0346 6.855 19.4781C7.2985 19.9216 7.83508 20.1433 8.46475 20.1433H16.1C16.7298 20.1433 17.2664 19.9216 17.7097 19.4781C18.1532 19.0346 18.375 18.498 18.375 17.8683V10.8488C18.375 10.5423 18.3181 10.2522 18.2042 9.97857C18.0902 9.70507 17.9277 9.46274 17.7165 9.25157L13.8957 5.43682C13.6679 5.20882 13.413 5.03891 13.131 4.92708C12.8492 4.81508 12.5653 4.75907 12.2795 4.75907C11.9935 4.75907 11.7096 4.81508 11.4277 4.92708C11.1459 5.03891 10.891 5.20882 10.663 5.43682L6.8485 9.25157C6.63716 9.46274 6.47458 9.70582 6.36075 9.98082C6.24675 10.256 6.18975 10.5453 6.18975 10.8488ZM11.1897 17.9581H8.375V10.8128L12.2795 6.90857L16.1897 10.8128V17.9581H13.375V16.0476C13.375 15.7389 13.2702 15.4802 13.0607 15.2713C12.8511 15.0625 12.5927 14.9581 12.2855 14.9581C11.9782 14.9581 11.7187 15.0625 11.5072 15.2713C11.2956 15.4802 11.1897 15.7389 11.1897 16.0476V17.9581Z" fill="#131C24"/>
    <path d="M20.375 9.08507V19.0536C20.375 19.3624 20.4794 19.6212 20.6882 19.8301C20.8972 20.0389 21.1561 20.1433 21.4647 20.1433C21.7734 20.1433 22.0322 20.0389 22.2412 19.8301C22.4501 19.6212 22.5545 19.3624 22.5545 19.0536V9.12107C22.5545 8.81757 22.4975 8.52824 22.3835 8.25307C22.2695 7.97807 22.1069 7.73499 21.8957 7.52382L18.3907 4.01882C18.2956 3.92349 18.1773 3.84566 18.036 3.78532C17.8947 3.72499 17.7512 3.69482 17.6057 3.69482C17.1146 3.69482 16.7781 3.91799 16.5962 4.36432C16.4144 4.81049 16.4957 5.20582 16.8402 5.55032L20.375 9.08507Z" fill="#131C24"/>
</svg>
