<svg width="24" height="24" viewBox="0 0 24 24" fill="none" xmlns="http://www.w3.org/2000/svg">
    <path fill-rule="evenodd" clip-rule="evenodd" d="M3.79675 10.0356V18.9281C3.79675 19.5578 4.0185 20.0943 4.462 20.5378C4.9055 20.9813 5.44209 21.2031 6.07175 21.2031H17.9283C18.5579 21.2031 19.0945 20.9813 19.538 20.5378C19.9815 20.0943 20.2033 19.5578 20.2033 18.9281V10.0356C20.2033 9.67609 20.1234 9.33551 19.9638 9.01384C19.8043 8.69218 19.5816 8.42576 19.2958 8.2146L13.3675 3.76834C12.9657 3.46184 12.5098 3.30859 12 3.30859C11.4902 3.30859 11.0343 3.46184 10.6325 3.76834L4.70425 8.2146C4.41842 8.42576 4.19575 8.69218 4.03625 9.01384C3.87659 9.33551 3.79675 9.67609 3.79675 10.0356ZM6.07175 10.0356V18.9281H11.0121C11.004 18.8592 11 18.788 11 18.7145V6.33957L6.07175 10.0356ZM13 6.33956V18.7215C13 18.7927 12.9963 18.8615 12.989 18.9281H17.9283V10.0356L13 6.33956Z" fill="#131C24"/>
</svg>
