<svg width="24" height="24" viewBox="0 0 24 24" fill="none" xmlns="http://www.w3.org/2000/svg">
    <path d="M5.0001 21.2751C4.37043 21.2751 3.83385 21.0534 3.39035 20.6098C2.94685 20.1663 2.7251 19.6298 2.7251 19.0001V9.0001C2.7251 8.37043 2.94685 7.83385 3.39035 7.39035C3.83385 6.94685 4.37043 6.7251 5.0001 6.7251H6.7251V5.0001C6.7251 4.37043 6.94685 3.83385 7.39035 3.39035C7.83385 2.94685 8.37043 2.7251 9.0001 2.7251H15.0001C15.6298 2.7251 16.1663 2.94685 16.6098 3.39035C17.0533 3.83385 17.2751 4.37043 17.2751 5.0001V10.7251H19.0001C19.6298 10.7251 20.1663 10.9468 20.6098 11.3903C21.0534 11.8338 21.2751 12.3704 21.2751 13.0001V19.0001C21.2751 19.6298 21.0534 20.1663 20.6098 20.6098C20.1663 21.0534 19.6298 21.2751 19.0001 21.2751H13.0001V17.0001H11.0001V21.2751H5.0001ZM5.0001 19.0001H7.0001V17.0001H5.0001V19.0001ZM5.0001 15.0001H7.0001V13.0001H5.0001V15.0001ZM5.0001 11.0001H7.0001V9.0001H5.0001V11.0001ZM9.0001 15.0001H11.0001V13.0001H9.0001V15.0001ZM9.0001 11.0001H11.0001V9.0001H9.0001V11.0001ZM9.0001 7.0001H11.0001V5.0001H9.0001V7.0001ZM13.0001 15.0001H15.0001V13.0001H13.0001V15.0001ZM13.0001 11.0001H15.0001V9.0001H13.0001V11.0001ZM13.0001 7.0001H15.0001V5.0001H13.0001V7.0001ZM17.0001 19.0001H19.0001V17.0001H17.0001V19.0001ZM17.0001 15.0001H19.0001V13.0001H17.0001V15.0001Z" fill="#131C24"/>
</svg>
