<svg width="21" height="17" viewBox="0 0 21 17" fill="none" xmlns="http://www.w3.org/2000/svg">
    <path d="M0 14.1735V7.154C0 6.8505 0.0569999 6.56117 0.171 6.286C0.284833 6.011 0.447417 5.76792 0.65875 5.55675L4.47325 1.742C4.70125 1.514 4.95617 1.34408 5.238 1.23225C5.51983 1.12025 5.80375 1.06425 6.08975 1.06425C6.37558 1.06425 6.65942 1.12025 6.94125 1.23225C7.22325 1.34408 7.47817 1.514 7.706 1.742L11.5268 5.55675C11.7379 5.76792 11.9005 6.01025 12.0145 6.28375C12.1283 6.55742 12.1853 6.8475 12.1853 7.154V14.1735C12.1853 14.8032 11.9635 15.3398 11.52 15.7832C11.0767 16.2267 10.5401 16.4485 9.91025 16.4485H2.275C1.64533 16.4485 1.10875 16.2267 0.66525 15.7832C0.22175 15.3398 0 14.8032 0 14.1735ZM2.18525 14.2633H5V12.3527C5 12.0441 5.10583 11.7853 5.3175 11.5765C5.529 11.3677 5.78842 11.2632 6.09575 11.2632C6.40292 11.2632 6.66133 11.3677 6.871 11.5765C7.0805 11.7853 7.18525 12.0441 7.18525 12.3527V14.2633H10V7.118L6.08975 3.21375L2.18525 7.118V14.2633ZM14.1853 15.3587V5.39025L10.6505 1.8555C10.306 1.511 10.2247 1.11567 10.4065 0.669501C10.5883 0.223167 10.9248 0 11.416 0C11.5615 0 11.7049 0.0301665 11.8463 0.0904999C11.9876 0.150833 12.1058 0.228667 12.201 0.324001L15.706 3.829C15.9172 4.04017 16.0798 4.28325 16.1938 4.55825C16.3078 4.83342 16.3648 5.12275 16.3648 5.42625V15.3587C16.3648 15.6676 16.2603 15.9264 16.0515 16.1353C15.8425 16.3441 15.5837 16.4485 15.275 16.4485C14.9663 16.4485 14.7075 16.3441 14.4985 16.1353C14.2897 15.9264 14.1853 15.6676 14.1853 15.3587ZM18.3648 15.3527V3.6625L16.5575 1.8555C16.213 1.511 16.1311 1.11567 16.3118 0.669501C16.4923 0.223167 16.8291 0 17.3223 0C17.4683 0 17.6119 0.0301665 17.7533 0.0904999C17.8946 0.150833 18.0129 0.228667 18.1083 0.324001L19.8913 2.10125C20.1013 2.31108 20.2636 2.55442 20.3783 2.83125C20.4928 3.10808 20.55 3.39917 20.55 3.7045V15.3587C20.55 15.6676 20.4456 15.9264 20.2368 16.1353C20.0279 16.3441 19.7691 16.4485 19.4603 16.4485C19.1531 16.4485 18.8937 16.3427 18.682 16.131C18.4705 15.9195 18.3648 15.6601 18.3648 15.3527ZM6.09575 9.4485C5.78842 9.4485 5.529 9.34267 5.3175 9.131C5.10583 8.9195 5 8.66008 5 8.35275C5 8.04558 5.10583 7.78717 5.3175 7.5775C5.529 7.368 5.78842 7.26325 6.09575 7.26325C6.40292 7.26325 6.66133 7.36767 6.871 7.5765C7.0805 7.78533 7.18525 8.04408 7.18525 8.35275C7.18525 8.66008 7.08083 8.9195 6.872 9.131C6.66317 9.34267 6.40442 9.4485 6.09575 9.4485Z" fill="#131C24"/>
</svg>
