<svg width="24" height="24" viewBox="0 0 24 24" fill="none" xmlns="http://www.w3.org/2000/svg">
    <path d="M0.904228 17C0.650514 17 0.436414 16.9113 0.261928 16.7338C0.0873093 16.5564 0 16.3388 0 16.0809V15.6501C0 15.0453 0.299422 14.5547 0.898266 14.1782C1.49711 13.8017 2.28296 13.6134 3.25582 13.6134C3.40275 13.6134 3.54219 13.616 3.67415 13.6211C3.80624 13.6262 3.93568 13.6391 4.06247 13.6597C3.86745 13.9552 3.72197 14.2657 3.62605 14.591C3.53013 14.9165 3.48217 15.2561 3.48217 15.6097V17H0.904228ZM5.67378 17C5.42007 17 5.20597 16.9113 5.03148 16.7338C4.85686 16.5564 4.76955 16.3388 4.76955 16.0809V15.6097C4.76955 15.1691 4.88628 14.7648 5.11972 14.3967C5.35316 14.0286 5.68663 13.7066 6.12013 13.4308C6.55363 13.155 7.06914 12.9482 7.66666 12.8103C8.26405 12.6724 8.9135 12.6034 9.61502 12.6034C10.3301 12.6034 10.9855 12.6724 11.5813 12.8103C12.1772 12.9482 12.6919 13.155 13.1254 13.4308C13.5589 13.7066 13.8899 14.0286 14.1183 14.3967C14.3467 14.7648 14.4609 15.1691 14.4609 15.6097V16.0809C14.4609 16.3388 14.3736 16.5564 14.199 16.7338C14.0245 16.9113 13.8104 17 13.5567 17H5.67378ZM15.7483 17V15.6097C15.7483 15.2423 15.7028 14.8961 15.6119 14.571C15.5211 14.246 15.3847 13.9422 15.203 13.6597C15.3297 13.6391 15.4568 13.6262 15.5841 13.6211C15.7116 13.616 15.8417 13.6134 15.9746 13.6134C16.9513 13.6134 17.7381 13.7989 18.335 14.1699C18.9319 14.5408 19.2304 15.0341 19.2304 15.6501V16.0809C19.2304 16.3388 19.1431 16.5564 18.9685 16.7338C18.794 16.9113 18.5799 17 18.3262 17H15.7483ZM6.67261 15.2536H12.5777C12.4102 15.0067 12.0418 14.7936 11.4724 14.6143C10.9028 14.4348 10.2845 14.345 9.61761 14.345C8.95066 14.345 8.33162 14.4348 7.76046 14.6143C7.18944 14.7936 6.82682 15.0067 6.67261 15.2536ZM3.25621 12.8248C2.80602 12.8248 2.42055 12.662 2.0998 12.3362C1.77891 12.0105 1.61847 11.6189 1.61847 11.1614C1.61847 10.6901 1.77871 10.2948 2.0992 9.97554C2.41969 9.65612 2.80496 9.49641 3.25502 9.49641C3.71873 9.49641 4.10765 9.65585 4.42177 9.97473C4.73603 10.2936 4.89317 10.6888 4.89317 11.1602C4.89317 11.6178 4.7363 12.0096 4.42257 12.3356C4.10884 12.6618 3.72005 12.8248 3.25621 12.8248ZM15.975 12.8248C15.5248 12.8248 15.1394 12.662 14.8186 12.3362C14.4977 12.0105 14.3373 11.6189 14.3373 11.1614C14.3373 10.6901 14.4975 10.2948 14.818 9.97554C15.1385 9.65612 15.5238 9.49641 15.9738 9.49641C16.4375 9.49641 16.8265 9.65585 17.1406 9.97473C17.4548 10.2936 17.612 10.6888 17.612 11.1602C17.612 11.6178 17.4551 12.0096 17.1414 12.3356C16.8277 12.6618 16.4389 12.8248 15.975 12.8248ZM9.61522 12.0023C8.93172 12.0023 8.35069 11.7592 7.87215 11.2729C7.3936 10.7865 7.15433 10.196 7.15433 9.50126C7.15433 8.7951 7.3936 8.20172 7.87215 7.72111C8.35069 7.24037 8.93172 7 9.61522 7C10.3099 7 10.8937 7.24037 11.3666 7.72111C11.8396 8.20172 12.0761 8.7951 12.0761 9.50126C12.0761 10.196 11.8396 10.7865 11.3666 11.2729C10.8937 11.7592 10.3099 12.0023 9.61522 12.0023ZM9.61761 10.261C9.82853 10.261 10.0055 10.1875 10.1484 10.0406C10.2912 9.8938 10.3627 9.71322 10.3627 9.49884C10.3627 9.28432 10.291 9.10448 10.1478 8.95932C10.0045 8.81415 9.82694 8.74157 9.61522 8.74157C9.40589 8.74157 9.22895 8.81436 9.08441 8.95992C8.94 9.10549 8.86779 9.28594 8.86779 9.50126C8.86779 9.71403 8.94 9.8938 9.08441 10.0406C9.22895 10.1875 9.40669 10.261 9.61761 10.261Z" fill="#131C24"/>
    <path d="M20.7446 12.8248C20.2944 12.8248 19.9089 12.662 19.5882 12.3362C19.2673 12.0105 19.1068 11.6189 19.1068 11.1614C19.1068 10.6901 19.2671 10.2948 19.5876 9.97554C19.9081 9.65612 20.2933 9.49641 20.7434 9.49641C21.2071 9.49641 21.596 9.65585 21.9101 9.97473C22.2244 10.2936 22.3815 10.6888 22.3815 11.1602C22.3815 11.6178 22.2247 12.0096 21.9109 12.3356C21.5972 12.6618 21.2084 12.8248 20.7446 12.8248Z" fill="#131C24"/>
    <path d="M20.5178 17V15.6097C20.5178 15.2423 20.4724 14.8961 20.3815 14.571C20.2906 14.246 20.1543 13.9422 19.9725 13.6597C20.0993 13.6391 20.2264 13.6262 20.3537 13.6211C20.4811 13.616 20.6113 13.6134 20.7442 13.6134C21.7209 13.6134 22.5077 13.7989 23.1045 14.1699C23.7015 14.5408 24 15.0342 24 15.6501V16.0809C24 16.3388 23.9127 16.5564 23.7381 16.7338C23.5636 16.9113 23.3495 17 23.0958 17H20.5178Z" fill="#131C24"/>
</svg>
