<svg width="24" height="24" viewBox="0 0 24 24" fill="none" xmlns="http://www.w3.org/2000/svg">
    <path d="M12.1948 12.4298C11.2758 12.4298 10.491 12.0878 9.8403 11.4038C9.18963 10.7197 8.8643 9.89468 8.8643 8.92857C8.8643 7.9626 9.18963 7.13837 9.8403 6.45589C10.491 5.77355 11.2758 5.43237 12.1948 5.43237C13.1138 5.43237 13.8987 5.77355 14.5493 6.45589C15.2 7.13837 15.5253 7.9626 15.5253 8.92857C15.5253 9.89468 15.2 10.7197 14.5493 11.4038C13.8987 12.0878 13.1138 12.4298 12.1948 12.4298ZM5.69482 17.5374V16.9207C5.69482 16.4178 5.81857 15.9555 6.06605 15.5341C6.31353 15.1124 6.64237 14.7907 7.05255 14.5688C7.88084 14.1351 8.72385 13.809 9.58159 13.5905C10.4392 13.372 11.3103 13.2627 12.1948 13.2627C13.0853 13.2627 13.9595 13.3712 14.8174 13.588C15.6752 13.8049 16.5151 14.1301 17.3371 14.5638C17.7473 14.7853 18.0761 15.1063 18.3236 15.527C18.5711 15.9476 18.6948 16.4122 18.6948 16.9207V17.5374C18.6948 18.0619 18.5191 18.5088 18.1677 18.8782C17.8163 19.2477 17.3911 19.4324 16.8922 19.4324H7.49746C6.99854 19.4324 6.57336 19.2477 6.22195 18.8782C5.87053 18.5088 5.69482 18.0619 5.69482 17.5374ZM7.49746 17.5374H16.8922V16.9455C16.8922 16.796 16.8559 16.6601 16.7832 16.5378C16.7106 16.4155 16.6149 16.3204 16.496 16.2525C15.8019 15.891 15.0963 15.6182 14.3794 15.4341C13.6626 15.2499 12.9344 15.1578 12.1948 15.1578C11.4616 15.1578 10.7334 15.2499 10.0103 15.4341C9.28709 15.6182 8.58156 15.891 7.89365 16.2525C7.77479 16.3204 7.67905 16.4155 7.60641 16.5378C7.53378 16.6601 7.49746 16.796 7.49746 16.9455V17.5374ZM12.1946 10.5348C12.6147 10.5348 12.9744 10.3775 13.2738 10.0631C13.5731 9.74864 13.7227 9.37054 13.7227 8.92878C13.7227 8.48717 13.5731 8.1099 13.274 7.79698C12.9748 7.48392 12.6151 7.32739 12.195 7.32739C11.7749 7.32739 11.4152 7.4842 11.1158 7.79781C10.8166 8.11143 10.6669 8.48835 10.6669 8.92857C10.6669 9.37033 10.8165 9.7485 11.1156 10.0631C11.4149 10.3775 11.7745 10.5348 12.1946 10.5348Z" fill="#131C24"/>
</svg>
