<svg width="24" height="24" viewBox="0 0 24 24" fill="none" xmlns="http://www.w3.org/2000/svg">
    <path d="M2 16.4585C2 15.9496 2.13962 15.4819 2.41886 15.0554C2.69809 14.6288 3.06912 14.3032 3.53193 14.0787C4.46649 13.6399 5.4176 13.3099 6.38524 13.0888C7.35303 12.8677 8.33595 12.7571 9.33399 12.7571C10.3387 12.7571 11.3251 12.8668 12.293 13.0862C13.261 13.3057 14.2086 13.6348 15.1358 14.0737C15.5986 14.2977 15.9697 14.6226 16.2491 15.0482C16.5284 15.4739 16.668 15.944 16.668 16.4585V17.0825C16.668 17.6132 16.4697 18.0655 16.0732 18.4393C15.6767 18.8131 15.197 19 14.634 19H4.03393C3.47084 19 2.99111 18.8131 2.59476 18.4393C2.19825 18.0655 2 17.6132 2 17.0825V16.4585ZM19.9661 19H17.8521C18.0552 18.7168 18.2066 18.4119 18.3063 18.0853C18.4061 17.7587 18.456 17.4244 18.456 17.0825V16.3302C18.456 15.6887 18.2735 15.0607 17.9085 14.4464C17.5434 13.8321 17.0006 13.3062 16.2802 12.8686C17.0152 12.9562 17.7224 13.1061 18.4017 13.318C19.0812 13.5302 19.7097 13.782 20.2873 14.0737C20.838 14.3546 21.2612 14.6862 21.5568 15.0685C21.8523 15.4506 22 15.8678 22 16.3201V17.0825C22 17.6132 21.8017 18.0655 21.4052 18.4393C21.0089 18.8131 20.5292 19 19.9661 19ZM9.33399 11.9142C8.32194 11.9142 7.45778 11.5766 6.74151 10.9013C6.02509 10.2259 5.66688 9.41121 5.66688 8.45722C5.66688 7.50324 6.02509 6.68854 6.74151 6.01312C7.45778 5.33771 8.32194 5 9.33399 5C10.3459 5 11.21 5.33771 11.9265 6.01312C12.6427 6.68854 13.0009 7.50324 13.0009 8.45722C13.0009 9.41121 12.6427 10.2259 11.9265 10.9013C11.21 11.5766 10.3459 11.9142 9.33399 11.9142ZM18.5363 8.45722C18.5363 9.40784 18.1773 10.2217 17.4592 10.8988C16.7413 11.5758 15.8782 11.9142 14.8701 11.9142C14.702 11.9142 14.4931 11.8959 14.2434 11.8592C13.9936 11.8224 13.7797 11.7796 13.6014 11.7307C14.0109 11.2744 14.3246 10.7659 14.5424 10.2051C14.7603 9.64433 14.8692 9.06191 14.8692 8.45786C14.8692 7.85394 14.7603 7.27138 14.5424 6.71018C14.3246 6.14883 14.0109 5.64002 13.6014 5.18375C13.8136 5.11014 14.024 5.06111 14.2326 5.03666C14.4412 5.01222 14.6526 5 14.8667 5C15.8758 5 16.7397 5.33855 17.4583 6.01565C18.177 6.69262 18.5363 7.50647 18.5363 8.45722ZM4.03393 17.0825H14.634V16.4836C14.634 16.3323 14.5931 16.1948 14.5111 16.071C14.4292 15.9473 14.3211 15.8511 14.187 15.7824C13.4037 15.4166 12.6076 15.1405 11.7988 14.9542C10.99 14.7678 10.1684 14.6746 9.33399 14.6746C8.50671 14.6746 7.68502 14.7678 6.86891 14.9542C6.05296 15.1405 5.25697 15.4166 4.48095 15.7824C4.34684 15.8511 4.23881 15.9473 4.15686 16.071C4.07491 16.1948 4.03393 16.3323 4.03393 16.4836V17.0825ZM9.3331 10.0724C9.80395 10.0724 10.2074 9.91433 10.5434 9.59825C10.8793 9.28204 11.0472 8.90198 11.0472 8.45807C11.0472 8.01402 10.8795 7.63367 10.5441 7.31704C10.2088 7.0004 9.80574 6.84208 9.33488 6.84208C8.86388 6.84208 8.46044 7.00012 8.12458 7.31619C7.78872 7.63241 7.6208 8.01247 7.6208 8.45638C7.6208 8.90029 7.78843 9.28063 8.12369 9.59741C8.4591 9.91405 8.86224 10.0724 9.3331 10.0724Z" fill="#131C24"/>
</svg>
