<svg width="24" height="24" viewBox="0 0 24 24" fill="none" xmlns="http://www.w3.org/2000/svg">
    <path d="M3.04102 14.2969C3.15021 14.301 3.25748 14.3117 3.3623 14.3281C3.20096 14.5645 3.08034 14.813 3.00098 15.0732C2.92167 15.3335 2.88184 15.6049 2.88184 15.8877V17H0.748047C0.538229 16.9999 0.361124 16.929 0.216797 16.7871C0.0722849 16.6452 0 16.4709 0 16.2646V15.9199C5.112e-05 15.4362 0.247627 15.0434 0.743164 14.7422C1.23873 14.441 1.88927 14.291 2.69434 14.291C2.81593 14.291 2.93181 14.2928 3.04102 14.2969ZM7.17871 14.2969C7.28799 14.301 7.3951 14.3116 7.5 14.3281C7.33869 14.5645 7.21803 14.8131 7.13867 15.0732C7.05938 15.3335 7.01954 15.605 7.01953 15.8877V17H4.88672C4.67675 17 4.49889 16.9291 4.35449 16.7871C4.21002 16.6452 4.1377 16.4709 4.1377 16.2646V15.9199C4.13775 15.4362 4.38544 15.0434 4.88086 14.7422C5.37638 14.441 6.02708 14.2911 6.83203 14.291C6.95363 14.291 7.0695 14.2928 7.17871 14.2969ZM12.0947 13.4824C12.6865 13.4824 13.2296 13.5381 13.7227 13.6484C14.2156 13.7587 14.6414 13.924 15 14.1445C15.3587 14.3651 15.6332 14.6225 15.8223 14.917C16.0113 15.2114 16.1055 15.5352 16.1055 15.8877V16.2646C16.1055 16.4709 16.0332 16.6452 15.8887 16.7871C15.7443 16.929 15.5673 17 15.3574 17H8.83301C8.62324 16.9999 8.44605 16.929 8.30176 16.7871C8.15727 16.6452 8.08496 16.4709 8.08496 16.2646V15.8877C8.08497 15.5352 8.18182 15.2114 8.375 14.917C8.56818 14.6226 8.84449 14.3651 9.20312 14.1445C9.56175 13.924 9.98818 13.7587 10.4824 13.6484C10.9767 13.5382 11.5143 13.4825 12.0947 13.4824ZM17.3584 14.291C18.1667 14.291 18.8176 14.4395 19.3115 14.7363C19.8055 15.033 20.0527 15.4273 20.0527 15.9199V16.2646C20.0527 16.4709 19.9804 16.6452 19.8359 16.7871C19.6916 16.929 19.5145 16.9999 19.3047 17H17.1709V15.8877C17.1709 15.5938 17.1338 15.3167 17.0586 15.0566C16.9834 14.7967 16.87 14.554 16.7197 14.3281C16.8247 14.3116 16.9298 14.301 17.0352 14.2969C17.1406 14.2928 17.2484 14.291 17.3584 14.291ZM21.3057 14.291C22.1139 14.291 22.7649 14.4396 23.2588 14.7363C23.7527 15.033 24 15.4273 24 15.9199V16.2646C24 16.4709 23.9277 16.6452 23.7832 16.7871C23.6389 16.929 23.4618 16.9999 23.252 17H21.1182V15.8877C21.1182 15.5938 21.0811 15.3167 21.0059 15.0566C20.9307 14.7967 20.8173 14.554 20.667 14.3281C20.7719 14.3116 20.8771 14.301 20.9824 14.2969C21.0879 14.2928 21.1957 14.291 21.3057 14.291ZM12.0977 14.876C11.5457 14.876 11.0332 14.9482 10.5605 15.0918C10.0882 15.2352 9.78788 15.4052 9.66016 15.6025H14.5469C14.4082 15.4052 14.1028 15.2352 13.6318 15.0918C13.1607 14.9483 12.6494 14.876 12.0977 14.876ZM2.69336 10.9971C3.07709 10.9971 3.39922 11.1248 3.65918 11.3799C3.91925 11.635 4.04979 11.951 4.0498 12.3281C4.0498 12.6942 3.91979 13.0077 3.66016 13.2686C3.40052 13.5295 3.0782 13.6602 2.69434 13.6602C2.32196 13.66 2.00265 13.529 1.7373 13.2686C1.47204 13.008 1.33984 12.6949 1.33984 12.3291C1.33985 11.9522 1.47221 11.6362 1.7373 11.3809C2.00243 11.1254 2.32109 10.9972 2.69336 10.9971ZM6.83203 10.9971C7.21557 10.9971 7.537 11.125 7.79688 11.3799C8.05694 11.635 8.18749 11.951 8.1875 12.3281C8.1875 12.6942 8.05749 13.0077 7.79785 13.2686C7.53829 13.5293 7.2167 13.6601 6.83301 13.6602C6.46043 13.6602 6.14143 13.5292 5.87598 13.2686C5.61046 13.008 5.47754 12.695 5.47754 12.3291C5.47755 11.9522 5.60999 11.6362 5.875 11.3809C6.14023 11.1253 6.45957 10.9971 6.83203 10.9971ZM17.3574 10.9971C17.7412 10.9971 18.0633 11.1248 18.3232 11.3799C18.5833 11.635 18.7129 11.951 18.7129 12.3281C18.7129 12.6941 18.5838 13.0078 18.3242 13.2686C18.0646 13.5295 17.7423 13.6602 17.3584 13.6602C16.9859 13.6601 16.6668 13.5291 16.4014 13.2686C16.136 13.008 16.0029 12.6949 16.0029 12.3291C16.0029 11.9521 16.1362 11.6363 16.4014 11.3809C16.6665 11.1254 16.9851 10.9971 17.3574 10.9971ZM21.3047 10.9971C21.6884 10.9971 22.0105 11.1248 22.2705 11.3799C22.5305 11.635 22.6601 11.951 22.6602 12.3281C22.6602 12.6941 22.531 13.0078 22.2715 13.2686C22.0118 13.5295 21.6895 13.6602 21.3057 13.6602C20.9332 13.6601 20.614 13.5291 20.3486 13.2686C20.0833 13.008 19.9502 12.6949 19.9502 12.3291C19.9502 11.9521 20.0835 11.6363 20.3486 11.3809C20.6138 11.1254 20.9323 10.9971 21.3047 10.9971ZM12.0957 9C12.6704 9.00008 13.1536 9.19263 13.5449 9.57715C13.9362 9.96159 14.1318 10.4362 14.1318 11.001C14.1318 11.5566 13.9362 12.0289 13.5449 12.418C13.1536 12.8069 12.6704 13.0019 12.0957 13.002C11.53 13.002 11.0484 12.807 10.6523 12.418C10.2566 12.0289 10.0586 11.5566 10.0586 11.001C10.0586 10.4362 10.2566 9.96156 10.6523 9.57715C11.0484 9.19256 11.53 9 12.0957 9ZM12.0957 10.3936C11.9225 10.3936 11.7759 10.4519 11.6562 10.5684C11.5368 10.6848 11.4766 10.8288 11.4766 11.001C11.4766 11.1712 11.5367 11.3152 11.6562 11.4326C11.7758 11.55 11.9232 11.6084 12.0977 11.6084C12.2721 11.6083 12.4189 11.5501 12.5371 11.4326C12.6552 11.3152 12.7139 11.1704 12.7139 10.999C12.7139 10.8274 12.6546 10.6835 12.5361 10.5674C12.4176 10.4514 12.2707 10.3936 12.0957 10.3936Z" fill="#131C24"/>
</svg>
