<svg width="25" height="13" viewBox="0 0 25 13" fill="none" xmlns="http://www.w3.org/2000/svg">
    <path d="M1.1375 12.3767C0.818333 12.3767 0.549 12.2669 0.3295 12.0472C0.109833 11.8278 0 11.5584 0 11.2392V10.706C0 9.9575 0.376667 9.35025 1.13 8.88425C1.88333 8.41825 2.87192 8.18525 4.09575 8.18525C4.28058 8.18525 4.456 8.18842 4.622 8.19475C4.78817 8.20108 4.951 8.217 5.1105 8.2425C4.86517 8.60833 4.68217 8.99258 4.5615 9.39525C4.44083 9.79808 4.3805 10.2183 4.3805 10.656V12.3767H1.1375ZM7.1375 12.3767C6.81833 12.3767 6.549 12.2669 6.3295 12.0472C6.10983 11.8278 6 11.5584 6 11.2392V10.656C6 10.1107 6.14683 9.61025 6.4405 9.15475C6.73417 8.69908 7.15367 8.30058 7.699 7.95925C8.24433 7.61792 8.89283 7.36192 9.6445 7.19125C10.396 7.02058 11.213 6.93525 12.0955 6.93525C12.995 6.93525 13.8195 7.02058 14.569 7.19125C15.3187 7.36192 15.9662 7.61792 16.5115 7.95925C17.0568 8.30058 17.4732 8.69908 17.7605 9.15475C18.0478 9.61025 18.1915 10.1107 18.1915 10.656V11.2392C18.1915 11.5584 18.0817 11.8278 17.862 12.0472C17.6425 12.2669 17.3732 12.3767 17.054 12.3767H7.1375ZM19.811 12.3767V10.656C19.811 10.2013 19.7538 9.77283 19.6395 9.3705C19.5252 8.96817 19.3537 8.59217 19.125 8.2425C19.2845 8.217 19.4443 8.20108 19.6045 8.19475C19.7648 8.18842 19.9286 8.18525 20.0958 8.18525C21.3244 8.18525 22.3142 8.41483 23.065 8.874C23.816 9.333 24.1915 9.94367 24.1915 10.706V11.2392C24.1915 11.5584 24.0817 11.8278 23.862 12.0472C23.6425 12.2669 23.3732 12.3767 23.054 12.3767H19.811ZM8.394 10.2153H15.8225C15.6118 9.90975 15.1483 9.646 14.432 9.424C13.7155 9.20183 12.9377 9.09075 12.0988 9.09075C11.2598 9.09075 10.481 9.20183 9.7625 9.424C9.04417 9.646 8.588 9.90975 8.394 10.2153ZM4.09625 7.20925C3.52992 7.20925 3.045 7.00767 2.6415 6.6045C2.23783 6.20133 2.036 5.71667 2.036 5.1505C2.036 4.56717 2.23758 4.07792 2.64075 3.68275C3.04392 3.28742 3.52858 3.08975 4.09475 3.08975C4.67808 3.08975 5.16733 3.28708 5.5625 3.68175C5.95783 4.07642 6.1555 4.5655 6.1555 5.149C6.1555 5.71533 5.95817 6.20025 5.5635 6.60375C5.16883 7.00742 4.67975 7.20925 4.09625 7.20925ZM20.0963 7.20925C19.5299 7.20925 19.045 7.00767 18.6415 6.6045C18.2378 6.20133 18.036 5.71667 18.036 5.1505C18.036 4.56717 18.2376 4.07792 18.6408 3.68275C19.0439 3.28742 19.5286 3.08975 20.0948 3.08975C20.6781 3.08975 21.1673 3.28708 21.5625 3.68175C21.9578 4.07642 22.1555 4.5655 22.1555 5.149C22.1555 5.71533 21.9582 6.20025 21.5635 6.60375C21.1688 7.00742 20.6798 7.20925 20.0963 7.20925ZM12.0957 6.19125C11.2359 6.19125 10.505 5.89033 9.903 5.2885C9.301 4.6865 9 3.95558 9 3.09575C9 2.22175 9.301 1.48733 9.903 0.8925C10.505 0.2975 11.2359 0 12.0957 0C12.9696 0 13.704 0.2975 14.299 0.8925C14.894 1.48733 15.1915 2.22175 15.1915 3.09575C15.1915 3.95558 14.894 4.6865 14.299 5.2885C13.704 5.89033 12.9696 6.19125 12.0957 6.19125ZM12.0988 4.036C12.3641 4.036 12.5867 3.94508 12.7665 3.76325C12.9462 3.58158 13.036 3.35808 13.036 3.09275C13.036 2.82725 12.9459 2.60467 12.7657 2.425C12.5854 2.24533 12.3621 2.1555 12.0957 2.1555C11.8324 2.1555 11.6098 2.24558 11.428 2.42575C11.2463 2.60592 11.1555 2.82925 11.1555 3.09575C11.1555 3.35908 11.2463 3.58158 11.428 3.76325C11.6098 3.94508 11.8334 4.036 12.0988 4.036Z" fill="#131C24"/>
</svg>
