<svg width="24" height="24" viewBox="0 0 24 24" fill="none" xmlns="http://www.w3.org/2000/svg">
    <path d="M3.84448 3.79673C3.52532 3.79673 3.25598 3.68698 3.03648 3.46748C2.81682 3.24781 2.70698 2.9784 2.70698 2.65923C2.70698 2.34006 2.81682 2.07064 3.03648 1.85098C3.25598 1.63148 3.52532 1.52173 3.84448 1.52173H4.84448C5.16365 1.52173 5.43307 1.63148 5.65273 1.85098C5.87223 2.07064 5.98198 2.34006 5.98198 2.65923C5.98198 2.9784 5.87223 3.24781 5.65273 3.46748C5.43307 3.68698 5.16365 3.79673 4.84448 3.79673H3.84448ZM4.99348 18.0777L4.64123 19.8445H10.9222V18.0777H4.99348ZM5.38323 6.81748L6.08923 6.11748C6.3004 5.90615 6.5614 5.79948 6.87223 5.79748C7.18307 5.79548 7.45248 5.90015 7.68048 6.11148C7.90832 6.33931 8.02323 6.60965 8.02523 6.92248C8.02723 7.23531 7.91432 7.50573 7.68648 7.73373L6.98048 8.43373C6.76915 8.6449 6.50807 8.75148 6.19723 8.75348C5.8864 8.75548 5.61707 8.6509 5.38923 8.43973C5.16123 8.21173 5.04623 7.94131 5.04423 7.62848C5.04223 7.31565 5.15523 7.04531 5.38323 6.81748ZM5.42323 15.9222H10.9222V14.1555H5.77548L5.42323 15.9222ZM12 6.53973C10.8771 6.53973 9.8819 6.20731 9.01423 5.54248C8.1464 4.87748 7.5529 4.03723 7.23373 3.02173C7.13507 2.72723 7.15565 2.44131 7.29548 2.16398C7.43515 1.88681 7.65223 1.69898 7.94673 1.60048C8.24123 1.50198 8.53023 1.52156 8.81373 1.65923C9.0974 1.7969 9.28848 2.01298 9.38698 2.30748C9.55365 2.87781 9.87473 3.34656 10.3502 3.71373C10.8257 4.08106 11.3756 4.26473 12 4.26473C12.6243 4.26473 13.1742 4.08106 13.6497 3.71373C14.1252 3.34656 14.4463 2.87781 14.613 2.30748C14.7115 2.01298 14.9026 1.7969 15.1862 1.65923C15.4697 1.52156 15.7587 1.50198 16.0532 1.60048C16.3477 1.69898 16.5648 1.88681 16.7045 2.16398C16.8443 2.44131 16.8649 2.72723 16.7662 3.02173C16.4471 4.03723 15.8536 4.87748 14.9857 5.54248C14.1181 6.20731 13.1228 6.53973 12 6.53973ZM10.8625 9.70698V8.70698C10.8625 8.38781 10.9722 8.11848 11.1917 7.89898C11.4114 7.67931 11.6808 7.56948 12 7.56948C12.3191 7.56948 12.5886 7.67931 12.8082 7.89898C13.0277 8.11848 13.1375 8.38781 13.1375 8.70698V9.70698C13.1375 10.0261 13.0277 10.2956 12.8082 10.5152C12.5886 10.7347 12.3191 10.8445 12 10.8445C11.6808 10.8445 11.4114 10.7347 11.1917 10.5152C10.9722 10.2956 10.8625 10.0261 10.8625 9.70698ZM13.0777 19.8445H19.3587L19.0065 18.0777H13.0777V19.8445ZM13.0777 15.9222H18.5767L18.2245 14.1555H13.0777V15.9222ZM17.0135 8.41473L16.3135 7.70873C16.1023 7.4974 15.9936 7.23631 15.9872 6.92548C15.9809 6.61465 16.0917 6.34531 16.3195 6.11748C16.5308 5.90615 16.7961 5.80048 17.1152 5.80048C17.4344 5.80048 17.6996 5.90615 17.9107 6.11748L18.6357 6.82323C18.8637 7.03456 18.9787 7.29565 18.9807 7.60648C18.9827 7.91731 18.8697 8.18673 18.6417 8.41473C18.4139 8.64256 18.1426 8.75648 17.8277 8.75648C17.5129 8.75648 17.2415 8.64256 17.0135 8.41473ZM20.1555 3.79673H19.1555C18.8363 3.79673 18.5669 3.68698 18.3472 3.46748C18.1277 3.24781 18.018 2.9784 18.018 2.65923C18.018 2.34006 18.1277 2.07064 18.3472 1.85098C18.5669 1.63148 18.8363 1.52173 19.1555 1.52173H20.1555C20.4746 1.52173 20.744 1.63148 20.9635 1.85098C21.1832 2.07064 21.293 2.34006 21.293 2.65923C21.293 2.9784 21.1832 3.24781 20.9635 3.46748C20.744 3.68698 20.4746 3.79673 20.1555 3.79673ZM2.39723 19.3907L3.53748 13.7017C3.63682 13.1672 3.8979 12.7301 4.32073 12.3902C4.74357 12.0504 5.22848 11.8805 5.77548 11.8805H18.2245C18.7715 11.8805 19.2564 12.0504 19.6792 12.3902C20.1021 12.7301 20.3632 13.1672 20.4625 13.7017L21.6027 19.3907C21.7521 20.1077 21.5957 20.7418 21.1335 21.293C20.6713 21.844 20.0797 22.1195 19.3587 22.1195H4.64123C3.92023 22.1195 3.32865 21.844 2.86648 21.293C2.40432 20.7418 2.2479 20.1077 2.39723 19.3907Z" fill="#131C24"/>
</svg>
